<svg xmlns="http://www.w3.org/2000/svg" width="20.8" height="20.8" viewBox="0 0 20.8 20.8">
  <g id="Group_987" data-name="Group 987" transform="translate(-1090 -266)">
    <g id="Group_981" data-name="Group 981" transform="translate(1087.933 263.933)">
      <path id="Path_923" data-name="Path 923" d="M68.8,58.4A10.4,10.4,0,1,1,58.4,48,10.4,10.4,0,0,1,68.8,58.4Z" transform="translate(-45.933 -45.933)" fill="#0081a0"/>
    </g>
    <g id="Group_986" data-name="Group 986" transform="translate(1342.395 461.344)">
      <g id="Group_983" data-name="Group 983" transform="translate(-248.695 -187.203)">
        <g id="Group_982" data-name="Group 982" transform="translate(0 0)">
          <path id="Path_1736" data-name="Path 1736" d="M-245.947-51.158H-248.3a.392.392,0,0,0-.393.393V-43.7a.392.392,0,0,0,.393.393h2.355a1.179,1.179,0,0,0,1.178-1.178v-5.5A1.179,1.179,0,0,0-245.947-51.158Zm-.785,6.281a.393.393,0,0,1-.393-.393.393.393,0,0,1,.393-.393.393.393,0,0,1,.393.393A.393.393,0,0,1-246.732-44.877Z" transform="translate(248.695 51.158)" fill="#fff"/>
        </g>
      </g>
      <g id="Group_985" data-name="Group 985" transform="translate(-243.984 -190.336)">
        <g id="Group_984" data-name="Group 984" transform="translate(0 0)">
          <path id="Path_1737" data-name="Path 1737" d="M-30.728-185.24a1.179,1.179,0,0,0-1.178-1.178h-2.967a3.372,3.372,0,0,0,.455-3.125,1.455,1.455,0,0,0-1.3-.793h-.01c-.846,0-.989.657-1.1,1.185a3.913,3.913,0,0,1-1.866,2.733h-.717v6.3l.26.073a14.478,14.478,0,0,0,3.844.7h1.837a1.179,1.179,0,0,0,1.178-1.178,1.168,1.168,0,0,0-.083-.434,1.179,1.179,0,0,0,.868-1.136,1.168,1.168,0,0,0-.083-.434,1.179,1.179,0,0,0,.868-1.136,1.172,1.172,0,0,0-.3-.785A1.172,1.172,0,0,0-30.728-185.24Z" transform="translate(39.417 190.336)" fill="#fffdfd"/>
        </g>
      </g>
    </g>
  </g>
</svg>
